<?xml version="1.0" encoding="UTF-8"?>
<svg xmlns="http://www.w3.org/2000/svg" xmlns:xlink="http://www.w3.org/1999/xlink" viewBox="0 0 1596.45 1261.93">
  <defs>
    <linearGradient id="uuid-565f8998-3596-4e02-a434-53fdd6ef4cf5" x1="80.67" y1="189.25" x2="1130.63" y2="795.45" gradientUnits="userSpaceOnUse">
      <stop offset=".23" stop-color="#ffbd00"/>
      <stop offset=".73" stop-color="#ffbf00"/>
      <stop offset="1" stop-color="#ffc315"/>
      <stop offset="1" stop-color="#ffda00"/>
    </linearGradient>
    <linearGradient id="uuid-744c7a4f-7a61-40d8-8ca3-3c706d37b965" x1="80.67" y1="189.25" x2="1130.63" y2="795.45" gradientUnits="userSpaceOnUse">
      <stop offset=".17" stop-color="#ffbd00"/>
      <stop offset=".46" stop-color="#ffd515" stop-opacity=".2"/>
      <stop offset=".73" stop-color="#ffd70d" stop-opacity=".73"/>
      <stop offset=".8" stop-color="#ff940e" stop-opacity=".59"/>
      <stop offset="1" stop-color="#ffda00"/>
    </linearGradient>
    <linearGradient id="uuid-0b7b7784-793e-4478-ae5d-7d1f3cae844c" x1="80.67" y1="189.25" x2="1130.63" y2="795.45" gradientUnits="userSpaceOnUse">
      <stop offset=".08" stop-color="#ffca04" stop-opacity=".89"/>
      <stop offset=".11" stop-color="#ffd600"/>
      <stop offset=".26" stop-color="#ffa015" stop-opacity=".2"/>
      <stop offset="1" stop-color="#ffda00"/>
    </linearGradient>
    <linearGradient id="uuid-e4c45cd3-17e4-4043-a425-e964177a0c08" x1="430.65" y1="730.85" x2="641.36" y2="852.5" gradientTransform="translate(692.26 1067.82) rotate(-97.83)" gradientUnits="userSpaceOnUse">
      <stop offset="0" stop-color="#ffbd00"/>
      <stop offset=".35" stop-color="#ffd515" stop-opacity=".2"/>
      <stop offset=".56" stop-color="#ffd70d" stop-opacity=".73"/>
      <stop offset=".8" stop-color="#ff940e" stop-opacity=".59"/>
      <stop offset="1" stop-color="#ffda00"/>
    </linearGradient>
    <linearGradient id="uuid-6b653808-dcd8-496f-a4e3-feac937739ef" x1="547.33" y1="209.72" x2="646.13" y2="209.72" gradientTransform="matrix(1,0,0,1,0,0)" xlink:href="#uuid-e4c45cd3-17e4-4043-a425-e964177a0c08"/>
    <linearGradient id="uuid-71ac5c1f-eb9b-4e75-948b-92a9a3b0920c" x1="809.86" y1="202.06" x2="895.36" y2="202.06" gradientTransform="matrix(1,0,0,1,0,0)" xlink:href="#uuid-e4c45cd3-17e4-4043-a425-e964177a0c08"/>
    <linearGradient id="uuid-1419343b-24e6-49a3-b1fb-cd4db7c9c788" x1="681.05" y1="200.72" x2="770.86" y2="200.72" gradientTransform="matrix(1,0,0,1,0,0)" xlink:href="#uuid-e4c45cd3-17e4-4043-a425-e964177a0c08"/>
    <linearGradient id="uuid-ac641d11-25a6-4e54-ac78-6cbc4c8e13b0" x1="705.89" y1="241.56" x2="746.41" y2="241.56" gradientTransform="matrix(1,0,0,1,0,0)" xlink:href="#uuid-e4c45cd3-17e4-4043-a425-e964177a0c08"/>
    <linearGradient id="uuid-2a2e0dda-4d47-4736-94d7-e7745b383a7c" x1="929.17" y1="199.16" x2="1019.59" y2="199.16" gradientTransform="matrix(1,0,0,1,0,0)" xlink:href="#uuid-e4c45cd3-17e4-4043-a425-e964177a0c08"/>
    <linearGradient id="uuid-48ea66f5-815b-4948-b128-0bde7b5573c9" x1="954.7" y1="243.49" x2="995.14" y2="243.49" gradientTransform="matrix(1,0,0,1,0,0)" xlink:href="#uuid-e4c45cd3-17e4-4043-a425-e964177a0c08"/>
    <linearGradient id="uuid-f4280209-caec-46fc-92f1-e575900c3a54" x1="723.47" y1="682.61" x2="1582.15" y2="682.61" gradientUnits="userSpaceOnUse">
      <stop offset="0" stop-color="#ffbd00"/>
      <stop offset=".23" stop-color="#ffcf0e"/>
      <stop offset=".35" stop-color="#ffd515"/>
      <stop offset=".56" stop-color="#ffd70d"/>
      <stop offset=".8" stop-color="#ffc10e"/>
      <stop offset="1" stop-color="#ffda00"/>
    </linearGradient>
  </defs>
  <g id="uuid-81fb5ef0-3bcd-41d7-83b9-88dc3417e462" data-name="Layer 1">
    <g>
      <path d="M397.97,39.87c-7.6-.44-14.12,5.36-14.56,12.96-.21,3.67,1.04,7.08,3.23,9.68-6.54,7.41-37.93,42.07-52.23,41.07-13.73-.97-38.05-55.68-44.7-71.23,6.21-2.12,10.83-7.81,11.23-14.76.53-9.16-6.46-17.02-15.62-17.55s-17.02,6.46-17.55,15.62c-.46,7.91,4.7,14.84,12.01,16.93-7.04,16.07-32.49,72.03-47.07,75.3-13.52,3.03-39.62-24.83-51.38-38.37,1.9-2.21,3.13-5.03,3.31-8.17.44-7.6-5.36-14.12-12.96-14.56-7.6-.44-14.12,5.36-14.56,12.96-.44,7.6,5.36,14.12,12.96,14.56.69.04,1.37.01,2.05-.05,5.83,20.65,24.76,87.85,25.7,92.54.48,2.4,143.04-5.53,173.78,7.83l24.49-107.25c.09,0,.17.02.26.03,7.6.44,14.12-5.36,14.56-12.96.44-7.6-5.36-14.12-12.96-14.56Z" style="fill: url(#uuid-565f8998-3596-4e02-a434-53fdd6ef4cf5); stroke-width: 0px;"/>
      <g>
        <path d="M484.51,520.66c-6.48,0-12.6-.36-19.08-1.08-43.56-2.16-65.88-13.68-90.72-48.24-18.36-25.56-36-57.6-52.2-82.8-9.72-15.12-19.08-21.6-46.8-21.6h-15.12v82.08c0,44.28,5.04,48.24,48.24,51.84v15.12h-145.81v-15.12c43.56-3.6,48.6-7.56,48.6-51.84v-208.81c0-45-4.68-47.88-46.44-50.76v-15.84h137.88c40.68,0,66.96,4.68,87.48,18.36,21.96,13.68,35.64,37.08,35.64,69.12,0,45.72-29.52,73.08-68.04,89.28,9.36,17.28,31.32,51.84,47.52,75.96,19.44,27.72,30.96,42.48,43.56,55.44,13.68,15.48,25.56,21.24,37.8,24.12l-2.52,14.76ZM284.71,349.3c27,0,45-4.32,58.68-15.12,20.52-15.84,28.8-36.36,28.8-64.8,0-56.52-37.08-77.4-77.04-77.4-16.2,0-24.84,2.16-28.8,5.04-3.6,2.88-5.76,9-5.76,22.68v129.6h24.12Z" style="fill: url(#uuid-565f8998-3596-4e02-a434-53fdd6ef4cf5); stroke-width: 0px;"/>
        <path d="M954.37,300.34c-28.44,4.32-33.12,8.64-47.52,38.88-13.32,26.64-30.6,70.92-67.68,156.25-36.36,83.88-47.88,113.76-56.88,143.64-2.52,10.08-9.36,12.6-16.56,12.6-15.48,0-32.04-12.96-32.04-27,0-8.64,4.68-13.32,13.68-19.44,18.36-10.8,28.8-22.68,41.76-46.44,9.36-17.28,13.68-27.72,15.84-33.84,3.24-7.92,2.16-15.12-1.08-23.76-22.68-62.28-47.52-127.8-62.28-162.37-11.52-27.36-17.28-34.2-46.08-38.52v-14.04h113.04l.72,14.04c-24.84,4.32-28.08,9-21.24,28.08l48.24,128.88c14.4-33.12,37.44-95.4,47.88-127.08,6.84-19.44,2.52-25.56-27.36-29.88v-14.04h97.56v14.04Z" style="fill: url(#uuid-565f8998-3596-4e02-a434-53fdd6ef4cf5); stroke-width: 0px;"/>
        <path d="M1104.52,522.1c-10.08,0-21.6-4.68-27.36-10.44-7.2-6.84-10.44-14.04-12.96-22.32-21.6,13.68-46.8,32.76-61.92,32.76-39.96,0-66.24-31.68-66.24-64.8,0-26.28,14.4-42.12,43.56-51.48,34.2-10.8,71.28-24.48,82.81-34.2v-9.36c0-37.8-17.28-57.96-42.84-57.96-9.36,0-17.28,3.6-22.68,9.36-6.84,6.84-11.52,18.72-16.2,35.64-3.24,9.36-9,12.96-17.28,12.96-10.44,0-24.48-10.8-24.48-23.4,0-7.92,6.84-14.4,17.28-21.6,15.48-11.16,51.84-31.32,81.72-37.08,16.92,0,32.4,3.96,44.64,13.32,19.8,16.56,25.56,38.52,25.56,66.6v94.68c0,23.4,9.36,31.32,19.08,31.32,6.12,0,13.32-2.52,19.08-5.76l5.4,14.04-47.16,27.72ZM1062.39,389.98c-10.8,5.4-32.4,15.48-43.56,20.52-20.88,9-32.4,19.44-32.4,38.88,0,27.72,20.88,39.96,36.72,39.96,12.6,0,29.88-7.92,39.24-17.28v-82.08Z" style="fill: url(#uuid-565f8998-3596-4e02-a434-53fdd6ef4cf5); stroke-width: 0px;"/>
        <path d="M1168.14,515.98v-14.04c33.48-3.96,38.16-6.84,38.16-42.12v-246.97c0-35.64-3.6-36.72-36.72-39.96v-12.96c28.8-3.24,63.36-12.24,82.8-18.36v318.25c0,35.64,4.68,38.88,39.6,42.12v14.04h-123.84Z" style="fill: url(#uuid-565f8998-3596-4e02-a434-53fdd6ef4cf5); stroke-width: 0px;"/>
      </g>
      <g>
        <path d="M183.77,684.15c54.7,7.15,96.53,30.03,96.53,82.59,0,35.04-19.31,62.21-50.77,79.37-27.53,14.66-64,20.74-106.54,20.74H0v-15.02c45.76-3.22,49.34-6.79,49.34-50.77v-207.72c0-44.69-2.5-47.91-44.69-50.77v-15.73h141.58c40.76,0,64,6.08,81.87,18.23,18.59,12.51,30.03,35.4,30.03,59.71,0,49.7-43.26,70.08-74.36,77.58v1.79ZM122.27,677.36c57.92,0,82.23-22.52,82.23-65.78,0-37.54-21.09-67.22-69.72-67.22-12.87,0-25.03,2.86-29.67,6.44-4.65,3.22-6.08,9.3-6.08,25.38v101.18h23.24ZM99.03,799.63c0,38.97,10.37,48.98,43.98,48.62,41.83-.72,79.73-22.17,79.73-76.15s-36.47-76.51-101.54-76.51h-22.17v104.04Z" style="fill: url(#uuid-565f8998-3596-4e02-a434-53fdd6ef4cf5); stroke-width: 0px;"/>
        <path d="M302.66,860.77v-13.94c33.25-3.22,37.18-6.43,37.18-42.9v-105.11c0-32.89-1.79-35.4-33.25-40.76v-12.51c28.6-4.65,55.42-10.73,79.37-20.02v178.4c0,36.11,3.58,38.97,37.54,42.9v13.94h-120.84ZM330.55,554.01c0-16.8,13.59-29.32,29.32-29.32s27.89,12.51,27.89,29.32c0,15.02-12.16,28.24-28.6,28.24-15.02,0-28.6-13.23-28.6-28.24Z" style="fill: url(#uuid-565f8998-3596-4e02-a434-53fdd6ef4cf5); stroke-width: 0px;"/>
        <path d="M670.92,798.91v-304.69c24.77-20.63,42.59-52.87,42.59-97.4,0-63.72-50.4-116.64-118.8-116.64h-.36c-50.76,0-121.32,40.32-121.32,126.37,0,57.96,44.64,115.56,121.32,115.56,1.54,0,3.09-.04,4.64-.11,23.27,2.53,25.82,8.04,25.82,36.67v73.65c-12.87-4.29-26.82-5.72-34.32-5.72-74.01,0-139.08,56.49-139.08,129.06s56.85,111.19,101.18,111.19c5.72,0,19.67-2.86,40.76-15.01l31.46-18.59v33.61c33.61-10.73,75.08-17.52,86.52-19.66v-13.59l-15.02-1.43c-21.45-2.15-25.38-4.65-25.38-33.25ZM528.09,388.54c0-59.4,28.8-90.72,59.76-90.72h.72c45,0,70.2,48.24,70.2,111.24,0,73.8-27.72,94.68-58.68,94.68-43.2,0-72-48.6-72-115.2ZM624.79,816.08c-12.87,8.58-30.75,16.44-48.27,16.44-32.89,0-72.58-28.6-72.58-91.17,0-75.79,44.33-94.74,66.86-94.74,20.38,0,41.11,8.94,53.99,27.17v142.29Z" style="fill: url(#uuid-565f8998-3596-4e02-a434-53fdd6ef4cf5); stroke-width: 0px;"/>
      </g>
    </g>
    <g>
      <path d="M397.97,39.87c-7.6-.44-14.12,5.36-14.56,12.96-.21,3.67,1.04,7.08,3.23,9.68-6.54,7.41-37.93,42.07-52.23,41.07-13.73-.97-38.05-55.68-44.7-71.23,6.21-2.12,10.83-7.81,11.23-14.76.53-9.16-6.46-17.02-15.62-17.55s-17.02,6.46-17.55,15.62c-.46,7.91,4.7,14.84,12.01,16.93-7.04,16.07-32.49,72.03-47.07,75.3-13.52,3.03-39.62-24.83-51.38-38.37,1.9-2.21,3.13-5.03,3.31-8.17.44-7.6-5.36-14.12-12.96-14.56-7.6-.44-14.12,5.36-14.56,12.96-.44,7.6,5.36,14.12,12.96,14.56.69.04,1.37.01,2.05-.05,5.83,20.65,24.76,87.85,25.7,92.54.48,2.4,143.04-5.53,173.78,7.83l24.49-107.25c.09,0,.17.02.26.03,7.6.44,14.12-5.36,14.56-12.96.44-7.6-5.36-14.12-12.96-14.56Z" style="fill: url(#uuid-744c7a4f-7a61-40d8-8ca3-3c706d37b965); stroke-width: 0px;"/>
      <g>
        <path d="M484.51,520.66c-6.48,0-12.6-.36-19.08-1.08-43.56-2.16-65.88-13.68-90.72-48.24-18.36-25.56-36-57.6-52.2-82.8-9.72-15.12-19.08-21.6-46.8-21.6h-15.12v82.08c0,44.28,5.04,48.24,48.24,51.84v15.12h-145.81v-15.12c43.56-3.6,48.6-7.56,48.6-51.84v-208.81c0-45-4.68-47.88-46.44-50.76v-15.84h137.88c40.68,0,66.96,4.68,87.48,18.36,21.96,13.68,35.64,37.08,35.64,69.12,0,45.72-29.52,73.08-68.04,89.28,9.36,17.28,31.32,51.84,47.52,75.96,19.44,27.72,30.96,42.48,43.56,55.44,13.68,15.48,25.56,21.24,37.8,24.12l-2.52,14.76ZM284.71,349.3c27,0,45-4.32,58.68-15.12,20.52-15.84,28.8-36.36,28.8-64.8,0-56.52-37.08-77.4-77.04-77.4-16.2,0-24.84,2.16-28.8,5.04-3.6,2.88-5.76,9-5.76,22.68v129.6h24.12Z" style="fill: url(#uuid-744c7a4f-7a61-40d8-8ca3-3c706d37b965); stroke-width: 0px;"/>
        <path d="M954.37,300.34c-28.44,4.32-33.12,8.64-47.52,38.88-13.32,26.64-30.6,70.92-67.68,156.25-36.36,83.88-47.88,113.76-56.88,143.64-2.52,10.08-9.36,12.6-16.56,12.6-15.48,0-32.04-12.96-32.04-27,0-8.64,4.68-13.32,13.68-19.44,18.36-10.8,28.8-22.68,41.76-46.44,9.36-17.28,13.68-27.72,15.84-33.84,3.24-7.92,2.16-15.12-1.08-23.76-22.68-62.28-47.52-127.8-62.28-162.37-11.52-27.36-17.28-34.2-46.08-38.52v-14.04h113.04l.72,14.04c-24.84,4.32-28.08,9-21.24,28.08l48.24,128.88c14.4-33.12,37.44-95.4,47.88-127.08,6.84-19.44,2.52-25.56-27.36-29.88v-14.04h97.56v14.04Z" style="fill: url(#uuid-744c7a4f-7a61-40d8-8ca3-3c706d37b965); stroke-width: 0px;"/>
        <path d="M1104.52,522.1c-10.08,0-21.6-4.68-27.36-10.44-7.2-6.84-10.44-14.04-12.96-22.32-21.6,13.68-46.8,32.76-61.92,32.76-39.96,0-66.24-31.68-66.24-64.8,0-26.28,14.4-42.12,43.56-51.48,34.2-10.8,71.28-24.48,82.81-34.2v-9.36c0-37.8-17.28-57.96-42.84-57.96-9.36,0-17.28,3.6-22.68,9.36-6.84,6.84-11.52,18.72-16.2,35.64-3.24,9.36-9,12.96-17.28,12.96-10.44,0-24.48-10.8-24.48-23.4,0-7.92,6.84-14.4,17.28-21.6,15.48-11.16,51.84-31.32,81.72-37.08,16.92,0,32.4,3.96,44.64,13.32,19.8,16.56,25.56,38.52,25.56,66.6v94.68c0,23.4,9.36,31.32,19.08,31.32,6.12,0,13.32-2.52,19.08-5.76l5.4,14.04-47.16,27.72ZM1062.39,389.98c-10.8,5.4-32.4,15.48-43.56,20.52-20.88,9-32.4,19.44-32.4,38.88,0,27.72,20.88,39.96,36.72,39.96,12.6,0,29.88-7.92,39.24-17.28v-82.08Z" style="fill: url(#uuid-744c7a4f-7a61-40d8-8ca3-3c706d37b965); stroke-width: 0px;"/>
        <path d="M1168.14,515.98v-14.04c33.48-3.96,38.16-6.84,38.16-42.12v-246.97c0-35.64-3.6-36.72-36.72-39.96v-12.96c28.8-3.24,63.36-12.24,82.8-18.36v318.25c0,35.64,4.68,38.88,39.6,42.12v14.04h-123.84Z" style="fill: url(#uuid-744c7a4f-7a61-40d8-8ca3-3c706d37b965); stroke-width: 0px;"/>
      </g>
      <g>
        <path d="M183.77,684.15c54.7,7.15,96.53,30.03,96.53,82.59,0,35.04-19.31,62.21-50.77,79.37-27.53,14.66-64,20.74-106.54,20.74H0v-15.02c45.76-3.22,49.34-6.79,49.34-50.77v-207.72c0-44.69-2.5-47.91-44.69-50.77v-15.73h141.58c40.76,0,64,6.08,81.87,18.23,18.59,12.51,30.03,35.4,30.03,59.71,0,49.7-43.26,70.08-74.36,77.58v1.79ZM122.27,677.36c57.92,0,82.23-22.52,82.23-65.78,0-37.54-21.09-67.22-69.72-67.22-12.87,0-25.03,2.86-29.67,6.44-4.65,3.22-6.08,9.3-6.08,25.38v101.18h23.24ZM99.03,799.63c0,38.97,10.37,48.98,43.98,48.62,41.83-.72,79.73-22.17,79.73-76.15s-36.47-76.51-101.54-76.51h-22.17v104.04Z" style="fill: url(#uuid-744c7a4f-7a61-40d8-8ca3-3c706d37b965); stroke-width: 0px;"/>
        <path d="M302.66,860.77v-13.94c33.25-3.22,37.18-6.43,37.18-42.9v-105.11c0-32.89-1.79-35.4-33.25-40.76v-12.51c28.6-4.65,55.42-10.73,79.37-20.02v178.4c0,36.11,3.58,38.97,37.54,42.9v13.94h-120.84ZM330.55,554.01c0-16.8,13.59-29.32,29.32-29.32s27.89,12.51,27.89,29.32c0,15.02-12.16,28.24-28.6,28.24-15.02,0-28.6-13.23-28.6-28.24Z" style="fill: url(#uuid-744c7a4f-7a61-40d8-8ca3-3c706d37b965); stroke-width: 0px;"/>
        <path d="M670.92,798.91v-304.69c24.77-20.63,42.59-52.87,42.59-97.4,0-63.72-50.4-116.64-118.8-116.64h-.36c-50.76,0-121.32,40.32-121.32,126.37,0,57.96,44.64,115.56,121.32,115.56,1.54,0,3.09-.04,4.64-.11,23.27,2.53,25.82,8.04,25.82,36.67v73.65c-12.87-4.29-26.82-5.72-34.32-5.72-74.01,0-139.08,56.49-139.08,129.06s56.85,111.19,101.18,111.19c5.72,0,19.67-2.86,40.76-15.01l31.46-18.59v33.61c33.61-10.73,75.08-17.52,86.52-19.66v-13.59l-15.02-1.43c-21.45-2.15-25.38-4.65-25.38-33.25ZM528.09,388.54c0-59.4,28.8-90.72,59.76-90.72h.72c45,0,70.2,48.24,70.2,111.24,0,73.8-27.72,94.68-58.68,94.68-43.2,0-72-48.6-72-115.2ZM624.79,816.08c-12.87,8.58-30.75,16.44-48.27,16.44-32.89,0-72.58-28.6-72.58-91.17,0-75.79,44.33-94.74,66.86-94.74,20.38,0,41.11,8.94,53.99,27.17v142.29Z" style="fill: url(#uuid-744c7a4f-7a61-40d8-8ca3-3c706d37b965); stroke-width: 0px;"/>
      </g>
    </g>
    <g>
      <path d="M397.97,39.87c-7.6-.44-14.12,5.36-14.56,12.96-.21,3.67,1.04,7.08,3.23,9.68-6.54,7.41-37.93,42.07-52.23,41.07-13.73-.97-38.05-55.68-44.7-71.23,6.21-2.12,10.83-7.81,11.23-14.76.53-9.16-6.46-17.02-15.62-17.55s-17.02,6.46-17.55,15.62c-.46,7.91,4.7,14.84,12.01,16.93-7.04,16.07-32.49,72.03-47.07,75.3-13.52,3.03-39.62-24.83-51.38-38.37,1.9-2.21,3.13-5.03,3.31-8.17.44-7.6-5.36-14.12-12.96-14.56-7.6-.44-14.12,5.36-14.56,12.96-.44,7.6,5.36,14.12,12.96,14.56.69.04,1.37.01,2.05-.05,5.83,20.65,24.76,87.85,25.7,92.54.48,2.4,143.04-5.53,173.78,7.83l24.49-107.25c.09,0,.17.02.26.03,7.6.44,14.12-5.36,14.56-12.96.44-7.6-5.36-14.12-12.96-14.56Z" style="fill: url(#uuid-0b7b7784-793e-4478-ae5d-7d1f3cae844c); stroke-width: 0px;"/>
      <g>
        <path d="M484.51,520.66c-6.48,0-12.6-.36-19.08-1.08-43.56-2.16-65.88-13.68-90.72-48.24-18.36-25.56-36-57.6-52.2-82.8-9.72-15.12-19.08-21.6-46.8-21.6h-15.12v82.08c0,44.28,5.04,48.24,48.24,51.84v15.12h-145.81v-15.12c43.56-3.6,48.6-7.56,48.6-51.84v-208.81c0-45-4.68-47.88-46.44-50.76v-15.84h137.88c40.68,0,66.96,4.68,87.48,18.36,21.96,13.68,35.64,37.08,35.64,69.12,0,45.72-29.52,73.08-68.04,89.28,9.36,17.28,31.32,51.84,47.52,75.96,19.44,27.72,30.96,42.48,43.56,55.44,13.68,15.48,25.56,21.24,37.8,24.12l-2.52,14.76ZM284.71,349.3c27,0,45-4.32,58.68-15.12,20.52-15.84,28.8-36.36,28.8-64.8,0-56.52-37.08-77.4-77.04-77.4-16.2,0-24.84,2.16-28.8,5.04-3.6,2.88-5.76,9-5.76,22.68v129.6h24.12Z" style="fill: url(#uuid-0b7b7784-793e-4478-ae5d-7d1f3cae844c); stroke-width: 0px;"/>
        <path d="M954.37,300.34c-28.44,4.32-33.12,8.64-47.52,38.88-13.32,26.64-30.6,70.92-67.68,156.25-36.36,83.88-47.88,113.76-56.88,143.64-2.52,10.08-9.36,12.6-16.56,12.6-15.48,0-32.04-12.96-32.04-27,0-8.64,4.68-13.32,13.68-19.44,18.36-10.8,28.8-22.68,41.76-46.44,9.36-17.28,13.68-27.72,15.84-33.84,3.24-7.92,2.16-15.12-1.08-23.76-22.68-62.28-47.52-127.8-62.28-162.37-11.52-27.36-17.28-34.2-46.08-38.52v-14.04h113.04l.72,14.04c-24.84,4.32-28.08,9-21.24,28.08l48.24,128.88c14.4-33.12,37.44-95.4,47.88-127.08,6.84-19.44,2.52-25.56-27.36-29.88v-14.04h97.56v14.04Z" style="fill: url(#uuid-0b7b7784-793e-4478-ae5d-7d1f3cae844c); stroke-width: 0px;"/>
        <path d="M1104.52,522.1c-10.08,0-21.6-4.68-27.36-10.44-7.2-6.84-10.44-14.04-12.96-22.32-21.6,13.68-46.8,32.76-61.92,32.76-39.96,0-66.24-31.68-66.24-64.8,0-26.28,14.4-42.12,43.56-51.48,34.2-10.8,71.28-24.48,82.81-34.2v-9.36c0-37.8-17.28-57.96-42.84-57.96-9.36,0-17.28,3.6-22.68,9.36-6.84,6.84-11.52,18.72-16.2,35.64-3.24,9.36-9,12.96-17.28,12.96-10.44,0-24.48-10.8-24.48-23.4,0-7.92,6.84-14.4,17.28-21.6,15.48-11.16,51.84-31.32,81.72-37.08,16.92,0,32.4,3.96,44.64,13.32,19.8,16.56,25.56,38.52,25.56,66.6v94.68c0,23.4,9.36,31.32,19.08,31.32,6.12,0,13.32-2.52,19.08-5.76l5.4,14.04-47.16,27.72ZM1062.39,389.98c-10.8,5.4-32.4,15.48-43.56,20.52-20.88,9-32.4,19.44-32.4,38.88,0,27.72,20.88,39.96,36.72,39.96,12.6,0,29.88-7.92,39.24-17.28v-82.08Z" style="fill: url(#uuid-0b7b7784-793e-4478-ae5d-7d1f3cae844c); stroke-width: 0px;"/>
        <path d="M1168.14,515.98v-14.04c33.48-3.96,38.16-6.84,38.16-42.12v-246.97c0-35.64-3.6-36.72-36.72-39.96v-12.96c28.8-3.24,63.36-12.24,82.8-18.36v318.25c0,35.64,4.68,38.88,39.6,42.12v14.04h-123.84Z" style="fill: url(#uuid-0b7b7784-793e-4478-ae5d-7d1f3cae844c); stroke-width: 0px;"/>
      </g>
      <g>
        <path d="M183.77,684.15c54.7,7.15,96.53,30.03,96.53,82.59,0,35.04-19.31,62.21-50.77,79.37-27.53,14.66-64,20.74-106.54,20.74H0v-15.02c45.76-3.22,49.34-6.79,49.34-50.77v-207.72c0-44.69-2.5-47.91-44.69-50.77v-15.73h141.58c40.76,0,64,6.08,81.87,18.23,18.59,12.51,30.03,35.4,30.03,59.71,0,49.7-43.26,70.08-74.36,77.58v1.79ZM122.27,677.36c57.92,0,82.23-22.52,82.23-65.78,0-37.54-21.09-67.22-69.72-67.22-12.87,0-25.03,2.86-29.67,6.44-4.65,3.22-6.08,9.3-6.08,25.38v101.18h23.24ZM99.03,799.63c0,38.97,10.37,48.98,43.98,48.62,41.83-.72,79.73-22.17,79.73-76.15s-36.47-76.51-101.54-76.51h-22.17v104.04Z" style="fill: url(#uuid-0b7b7784-793e-4478-ae5d-7d1f3cae844c); stroke-width: 0px;"/>
        <path d="M302.66,860.77v-13.94c33.25-3.22,37.18-6.43,37.18-42.9v-105.11c0-32.89-1.79-35.4-33.25-40.76v-12.51c28.6-4.65,55.42-10.73,79.37-20.02v178.4c0,36.11,3.58,38.97,37.54,42.9v13.94h-120.84ZM330.55,554.01c0-16.8,13.59-29.32,29.32-29.32s27.89,12.51,27.89,29.32c0,15.02-12.16,28.24-28.6,28.24-15.02,0-28.6-13.23-28.6-28.24Z" style="fill: url(#uuid-0b7b7784-793e-4478-ae5d-7d1f3cae844c); stroke-width: 0px;"/>
        <path d="M670.92,798.91v-304.69c24.77-20.63,42.59-52.87,42.59-97.4,0-63.72-50.4-116.64-118.8-116.64h-.36c-50.76,0-121.32,40.32-121.32,126.37,0,57.96,44.64,115.56,121.32,115.56,1.54,0,3.09-.04,4.64-.11,23.27,2.53,25.82,8.04,25.82,36.67v73.65c-12.87-4.29-26.82-5.72-34.32-5.72-74.01,0-139.08,56.49-139.08,129.06s56.85,111.19,101.18,111.19c5.72,0,19.67-2.86,40.76-15.01l31.46-18.59v33.61c33.61-10.73,75.08-17.52,86.52-19.66v-13.59l-15.02-1.43c-21.45-2.15-25.38-4.65-25.38-33.25ZM528.09,388.54c0-59.4,28.8-90.72,59.76-90.72h.72c45,0,70.2,48.24,70.2,111.24,0,73.8-27.72,94.68-58.68,94.68-43.2,0-72-48.6-72-115.2ZM624.79,816.08c-12.87,8.58-30.75,16.44-48.27,16.44-32.89,0-72.58-28.6-72.58-91.17,0-75.79,44.33-94.74,66.86-94.74,20.38,0,41.11,8.94,53.99,27.17v142.29Z" style="fill: url(#uuid-0b7b7784-793e-4478-ae5d-7d1f3cae844c); stroke-width: 0px;"/>
      </g>
    </g>
    <g>
      <path d="M397.97,39.87c-7.6-.44-14.12,5.36-14.56,12.96-.21,3.67,1.04,7.08,3.23,9.68-6.54,7.41-37.93,42.07-52.23,41.07-13.73-.97-38.05-55.68-44.7-71.23,6.21-2.12,10.83-7.81,11.23-14.76.53-9.16-6.46-17.02-15.62-17.55s-17.02,6.46-17.55,15.62c-.46,7.91,4.7,14.84,12.01,16.93-7.04,16.07-32.49,72.03-47.07,75.3-13.52,3.03-39.62-24.83-51.38-38.37,1.9-2.21,3.13-5.03,3.31-8.17.44-7.6-5.36-14.12-12.96-14.56-7.6-.44-14.12,5.36-14.56,12.96-.44,7.6,5.36,14.12,12.96,14.56.69.04,1.37.01,2.05-.05,5.83,20.65,24.76,87.85,25.7,92.54.48,2.4,143.04-5.53,173.78,7.83l24.49-107.25c.09,0,.17.02.26.03,7.6.44,14.12-5.36,14.56-12.96.44-7.6-5.36-14.12-12.96-14.56Z" style="fill: none; stroke: #ffac5c; stroke-miterlimit: 10;"/>
      <g>
        <path d="M484.51,520.66c-6.48,0-12.6-.36-19.08-1.08-43.56-2.16-65.88-13.68-90.72-48.24-18.36-25.56-36-57.6-52.2-82.8-9.72-15.12-19.08-21.6-46.8-21.6h-15.12v82.08c0,44.28,5.04,48.24,48.24,51.84v15.12h-145.81v-15.12c43.56-3.6,48.6-7.56,48.6-51.84v-208.81c0-45-4.68-47.88-46.44-50.76v-15.84h137.88c40.68,0,66.96,4.68,87.48,18.36,21.96,13.68,35.64,37.08,35.64,69.12,0,45.72-29.52,73.08-68.04,89.28,9.36,17.28,31.32,51.84,47.52,75.96,19.44,27.72,30.96,42.48,43.56,55.44,13.68,15.48,25.56,21.24,37.8,24.12l-2.52,14.76ZM284.71,349.3c27,0,45-4.32,58.68-15.12,20.52-15.84,28.8-36.36,28.8-64.8,0-56.52-37.08-77.4-77.04-77.4-16.2,0-24.84,2.16-28.8,5.04-3.6,2.88-5.76,9-5.76,22.68v129.6h24.12Z" style="fill: none; stroke: #ffac5c; stroke-miterlimit: 10;"/>
        <path d="M954.37,300.34c-28.44,4.32-33.12,8.64-47.52,38.88-13.32,26.64-30.6,70.92-67.68,156.25-36.36,83.88-47.88,113.76-56.88,143.64-2.52,10.08-9.36,12.6-16.56,12.6-15.48,0-32.04-12.96-32.04-27,0-8.64,4.68-13.32,13.68-19.44,18.36-10.8,28.8-22.68,41.76-46.44,9.36-17.28,13.68-27.72,15.84-33.84,3.24-7.92,2.16-15.12-1.08-23.76-22.68-62.28-47.52-127.8-62.28-162.37-11.52-27.36-17.28-34.2-46.08-38.52v-14.04h113.04l.72,14.04c-24.84,4.32-28.08,9-21.24,28.08l48.24,128.88c14.4-33.12,37.44-95.4,47.88-127.08,6.84-19.44,2.52-25.56-27.36-29.88v-14.04h97.56v14.04Z" style="fill: none; stroke: #ffac5c; stroke-miterlimit: 10;"/>
        <path d="M1104.52,522.1c-10.08,0-21.6-4.68-27.36-10.44-7.2-6.84-10.44-14.04-12.96-22.32-21.6,13.68-46.8,32.76-61.92,32.76-39.96,0-66.24-31.68-66.24-64.8,0-26.28,14.4-42.12,43.56-51.48,34.2-10.8,71.28-24.48,82.81-34.2v-9.36c0-37.8-17.28-57.96-42.84-57.96-9.36,0-17.28,3.6-22.68,9.36-6.84,6.84-11.52,18.72-16.2,35.64-3.24,9.36-9,12.96-17.28,12.96-10.44,0-24.48-10.8-24.48-23.4,0-7.92,6.84-14.4,17.28-21.6,15.48-11.16,51.84-31.32,81.72-37.08,16.92,0,32.4,3.96,44.64,13.32,19.8,16.56,25.56,38.52,25.56,66.6v94.68c0,23.4,9.36,31.32,19.08,31.32,6.12,0,13.32-2.52,19.08-5.76l5.4,14.04-47.16,27.72ZM1062.39,389.98c-10.8,5.4-32.4,15.48-43.56,20.52-20.88,9-32.4,19.44-32.4,38.88,0,27.72,20.88,39.96,36.72,39.96,12.6,0,29.88-7.92,39.24-17.28v-82.08Z" style="fill: none; stroke: #ffac5c; stroke-miterlimit: 10;"/>
        <path d="M1168.14,515.98v-14.04c33.48-3.96,38.16-6.84,38.16-42.12v-246.97c0-35.64-3.6-36.72-36.72-39.96v-12.96c28.8-3.24,63.36-12.24,82.8-18.36v318.25c0,35.64,4.68,38.88,39.6,42.12v14.04h-123.84Z" style="fill: none; stroke: #ffac5c; stroke-miterlimit: 10;"/>
      </g>
      <g>
        <path d="M183.77,684.15c54.7,7.15,96.53,30.03,96.53,82.59,0,35.04-19.31,62.21-50.77,79.37-27.53,14.66-64,20.74-106.54,20.74H0v-15.02c45.76-3.22,49.34-6.79,49.34-50.77v-207.72c0-44.69-2.5-47.91-44.69-50.77v-15.73h141.58c40.76,0,64,6.08,81.87,18.23,18.59,12.51,30.03,35.4,30.03,59.71,0,49.7-43.26,70.08-74.36,77.58v1.79ZM122.27,677.36c57.92,0,82.23-22.52,82.23-65.78,0-37.54-21.09-67.22-69.72-67.22-12.87,0-25.03,2.86-29.67,6.44-4.65,3.22-6.08,9.3-6.08,25.38v101.18h23.24ZM99.03,799.63c0,38.97,10.37,48.98,43.98,48.62,41.83-.72,79.73-22.17,79.73-76.15s-36.47-76.51-101.54-76.51h-22.17v104.04Z" style="fill: none; stroke: #ffac5c; stroke-miterlimit: 10;"/>
        <path d="M302.66,860.77v-13.94c33.25-3.22,37.18-6.43,37.18-42.9v-105.11c0-32.89-1.79-35.4-33.25-40.76v-12.51c28.6-4.65,55.42-10.73,79.37-20.02v178.4c0,36.11,3.58,38.97,37.54,42.9v13.94h-120.84ZM330.55,554.01c0-16.8,13.59-29.32,29.32-29.32s27.89,12.51,27.89,29.32c0,15.02-12.16,28.24-28.6,28.24-15.02,0-28.6-13.23-28.6-28.24Z" style="fill: none; stroke: #ffac5c; stroke-miterlimit: 10;"/>
        <path d="M670.92,798.91v-304.69c24.77-20.63,42.59-52.87,42.59-97.4,0-63.72-50.4-116.64-118.8-116.64h-.36c-50.76,0-121.32,40.32-121.32,126.37,0,57.96,44.64,115.56,121.32,115.56,1.54,0,3.09-.04,4.64-.11,23.27,2.53,25.82,8.04,25.82,36.67v73.65c-12.87-4.29-26.82-5.72-34.32-5.72-74.01,0-139.08,56.49-139.08,129.06s56.85,111.19,101.18,111.19c5.72,0,19.67-2.86,40.76-15.01l31.46-18.59v33.61c33.61-10.73,75.08-17.52,86.52-19.66v-13.59l-15.02-1.43c-21.45-2.15-25.38-4.65-25.38-33.25ZM528.09,388.54c0-59.4,28.8-90.72,59.76-90.72h.72c45,0,70.2,48.24,70.2,111.24,0,73.8-27.72,94.68-58.68,94.68-43.2,0-72-48.6-72-115.2ZM624.79,816.08c-12.87,8.58-30.75,16.44-48.27,16.44-32.89,0-72.58-28.6-72.58-91.17,0-75.79,44.33-94.74,66.86-94.74,20.38,0,41.11,8.94,53.99,27.17v142.29Z" style="fill: none; stroke: #ffac5c; stroke-miterlimit: 10;"/>
      </g>
    </g>
  </g>
  <g id="uuid-e348a7f6-e0f9-4b90-a560-8a445677870f" data-name="Layer 3">
    <path d="M1390.17,292.18s75,100.22,67.62,159.41c-7.38,59.19-48.69,99.51-54.91,108.38-1.76,2.5,21.23-55.52,20.85-111.46-.54-79.43-10.29-103.3-33.55-156.34Z" style="fill: url(#uuid-e4c45cd3-17e4-4043-a425-e964177a0c08); stroke: #ffac5c; stroke-miterlimit: 10; stroke-width: .5px;"/>
  </g>
  <g id="uuid-eb1e3e2f-5a05-4a18-b7e0-2ca3fe619398" data-name="Layer 4">
    <g>
      <path d="M646.1,195.36c.34,5.85-2.67,12.07-7.94,17.47-12.64,12.94-25.97,25.2-38.09,38.65-1.82,2.02-3.74,2.32-5.71.34-13.6-13.68-27.68-26.93-40.59-41.24-9.79-10.85-8-27.23,2.47-37.02,10.02-9.37,25.91-9.61,36.45-.05,3.5,3.17,5.52,2.95,8.88-.11,8.75-7.98,18.92-9.12,29.45-4.03,9.93,4.8,15.08,12.96,15.08,25.99Z" style="fill: url(#uuid-6b653808-dcd8-496f-a4e3-feac937739ef); stroke: #ffac5c; stroke-miterlimit: 10;"/>
      <path d="M823.5,187.6c11.75-10.12,21.91-21.51,27.83-36.12.37-.92.67-2.13,1.97-1.98,1.2.13,1.41,1.32,1.8,2.25,7.49,17.69,19.59,31.83,34.09,44.08,8.4,7.09,8.14,6.69-.25,13.84-13.94,11.87-27.11,24.52-34.57,41.82-.52,1.21-.86,2.84-2.36,3.13-1.55.3-1.9-1.32-2.3-2.31-7.82-19.24-22.02-33.43-37.15-46.82-3.51-3.1-3.74-4.76.22-7.66,3.95-2.89,7.18-6.77,10.73-10.22Z" style="fill: url(#uuid-71ac5c1f-eb9b-4e75-948b-92a9a3b0920c); stroke: #ffac5c; stroke-miterlimit: 10;"/>
      <g>
        <path d="M770.71,215.32c-1.16-9.82-8.05-17.07-18.43-19.39q-5.95-1.33-4.46-7.55c2.29-9.57-1.38-19.07-9.32-24.12-8.88-5.66-18.64-5.31-26.7.96-7.73,6.01-10.96,16.11-7.46,25.18,1.6,4.15.68,5.02-3.52,5.55-11.35,1.43-19.57,10.62-19.76,21.35-.2,11.75,7.44,21.34,18.71,23.49,9.59,1.83,18.33-2.24,24.01-11.75,2.05-3.42,3.05-2.95,4.54.09.98,2,2.18,3.83,3.83,5.38,7.42,6.96,17.3,8.44,26.55,3.9,8-3.93,13.1-13.73,12-23.08Z" style="fill: url(#uuid-1419343b-24e6-49a3-b1fb-cd4db7c9c788); stroke: #ffac5c; stroke-miterlimit: 10;"/>
        <path d="M727.56,231.08c-1.69-3.35-2.62-1.21-3.52.66-4.11,8.59-9.42,16.16-18.15,21.37,13.44.86,26.81,1.06,40.52-.27-9.24-4.97-14.43-13.02-18.85-21.77Z" style="fill: url(#uuid-ac641d11-25a6-4e54-ac78-6cbc4c8e13b0); stroke: #ffac5c; stroke-miterlimit: 10;"/>
      </g>
      <g>
        <path d="M1012.41,195.7c-11.72-11.69-23.85-22.96-35.71-34.52-2.41-2.35-4.2-2.16-6.4.15-11.67,12.22-23.66,24.14-35.04,36.62-8.77,9.62-7.85,24.56,1.26,33.42,9.74,9.45,23.78,10.02,33.75.9,3.38-3.09,5.34-3.03,8.88-.14,12.23,9.99,29.04,6.79,37.05-6.63,5.55-9.31,4.24-21.76-3.81-29.79Z" style="fill: url(#uuid-2a2e0dda-4d47-4736-94d7-e7745b383a7c); stroke: #ffac5c; stroke-miterlimit: 10;"/>
        <path d="M976.86,234.69c-1.08-1.9-2.46-2.67-3.71-.31-4.22,7.98-10.04,14.36-18.45,18.29.16.47.32.93.48,1.4,13.23-.27,26.46-.53,39.69-.8.09-.5.17-.99.26-1.49-8.25-3.46-13.99-9.52-18.28-17.09Z" style="fill: url(#uuid-48ea66f5-815b-4948-b128-0bde7b5573c9); stroke: #ffac5c; stroke-miterlimit: 10;"/>
      </g>
    </g>
  </g>
  <g id="uuid-19f92749-5607-401c-bc6a-3677e29b312b" data-name="Layer 5">
    <g>
      <g>
        <path d="M1186.71,814.29c-34.32,43.26-72.58,52.56-89.74,52.56-65.43,0-104.04-52.56-104.04-110.84,0-34.68,12.51-66.15,33.97-89.39,22.88-25.03,51.84-40.04,80.09-40.04h.36c45.41,0,81.52,38.97,81.52,80.45,0,10.01-2.86,14.66-12.51,16.8-9.65,1.43-76.16,6.79-137.65,8.94,1.07,67.58,40.76,96.18,77.59,96.18,21.81,0,42.19-8.22,61.5-26.1l8.94,11.44ZM1094.46,646.24c-22.88,0-45.77,20.38-53.27,64,28.25,0,56.49,0,86.17-1.07,9.3-.36,12.51-3.22,12.51-10.01,0-27.53-17.16-52.92-45.05-52.92h-.36Z" style="fill: #000; stroke-width: 0px;"/>
        <path d="M1302.91,683.07c17.52-28.6,39.33-56.49,64-56.49,19.31,0,32.18,13.94,32.18,26.82,0,12.16-7.15,22.88-18.59,28.25-6.44,2.5-11.08,1.43-14.3-1.43-8.22-7.51-14.3-10.73-23.24-10.73-13.59,0-29.68,15.37-41.12,43.26v93.32c0,34.32,2.5,37.54,43.98,40.76v13.94h-126.93v-13.94c32.18-3.22,36.83-6.44,36.83-40.76v-108.34c0-33.25-2.86-35.4-32.54-39.69v-11.8c26.46-4.29,51.49-10.37,78.66-21.45v58.28h1.07Z" style="fill: #000; stroke-width: 0px;"/>
        <path d="M1558.2,696.3c-10.37-30.75-28.96-52.56-55.06-52.56-19.31,0-32.89,14.3-32.89,34.68,0,21.45,20.02,33.97,43.98,43.26,40.4,16.09,67.93,35.04,67.93,71.87,0,48.98-45.05,73.3-89.03,73.3-27.53,0-52.56-9.65-61.5-17.16-3.58-6.79-8.58-43.62-9.3-64.36l14.66-2.15c10.01,35.04,33.97,66.15,65.43,66.15,19.31,0,36.47-14.66,36.47-35.4s-13.94-33.25-41.12-45.41c-30.75-13.94-67.58-31.82-67.58-73.3,0-37.18,32.18-68.65,82.24-68.65,22.88,0,37.18,4.65,47.91,9.3,4.65,11.44,11.08,43.62,12.16,56.13l-14.3,4.29Z" style="fill: #000; stroke-width: 0px;"/>
      </g>
      <path d="M977.57,848.11c-11.18,2.1-51.73,8.74-84.58,19.22v-32.85l-30.76,18.17c-20.62,11.88-34.25,14.68-39.85,14.68-43.34,0-98.91-37.05-98.91-108.7s63.61-126.18,135.96-126.18c7.34,0,20.97,1.4,33.55,5.59v-72c0-33.2-3.5-34.6-40.19-37.05v-13.28c29.01-3.5,64.66-11.18,85.28-17.83v303.03c0,27.96,3.84,30.41,24.82,32.51l14.68,1.4v13.28ZM892.98,678.59c-12.58-17.83-32.85-26.56-52.78-26.56-22.02,0-65.36,18.52-65.36,92.62,0,61.17,38.8,89.13,70.95,89.13,17.13,0,34.6-7.69,47.18-16.08v-139.11Z" style="fill: #000; stroke-width: 0px;"/>
    </g>
    <g>
      <g>
        <path d="M1186.71,814.29c-34.32,43.26-72.58,52.56-89.74,52.56-65.43,0-104.04-52.56-104.04-110.84,0-34.68,12.51-66.15,33.97-89.39,22.88-25.03,51.84-40.04,80.09-40.04h.36c45.41,0,81.52,38.97,81.52,80.45,0,10.01-2.86,14.66-12.51,16.8-9.65,1.43-76.16,6.79-137.65,8.94,1.07,67.58,40.76,96.18,77.59,96.18,21.81,0,42.19-8.22,61.5-26.1l8.94,11.44ZM1094.46,646.24c-22.88,0-45.77,20.38-53.27,64,28.25,0,56.49,0,86.17-1.07,9.3-.36,12.51-3.22,12.51-10.01,0-27.53-17.16-52.92-45.05-52.92h-.36Z" style="fill: url(#uuid-f4280209-caec-46fc-92f1-e575900c3a54); stroke-width: 0px;"/>
        <path d="M1302.91,683.07c17.52-28.6,39.33-56.49,64-56.49,19.31,0,32.18,13.94,32.18,26.82,0,12.16-7.15,22.88-18.59,28.25-6.44,2.5-11.08,1.43-14.3-1.43-8.22-7.51-14.3-10.73-23.24-10.73-13.59,0-29.68,15.37-41.12,43.26v93.32c0,34.32,2.5,37.54,43.98,40.76v13.94h-126.93v-13.94c32.18-3.22,36.83-6.44,36.83-40.76v-108.34c0-33.25-2.86-35.4-32.54-39.69v-11.8c26.46-4.29,51.49-10.37,78.66-21.45v58.28h1.07Z" style="fill: url(#uuid-f4280209-caec-46fc-92f1-e575900c3a54); stroke-width: 0px;"/>
        <path d="M1558.2,696.3c-10.37-30.75-28.96-52.56-55.06-52.56-19.31,0-32.89,14.3-32.89,34.68,0,21.45,20.02,33.97,43.98,43.26,40.4,16.09,67.93,35.04,67.93,71.87,0,48.98-45.05,73.3-89.03,73.3-27.53,0-52.56-9.65-61.5-17.16-3.58-6.79-8.58-43.62-9.3-64.36l14.66-2.15c10.01,35.04,33.97,66.15,65.43,66.15,19.31,0,36.47-14.66,36.47-35.4s-13.94-33.25-41.12-45.41c-30.75-13.94-67.58-31.82-67.58-73.3,0-37.18,32.18-68.65,82.24-68.65,22.88,0,37.18,4.65,47.91,9.3,4.65,11.44,11.08,43.62,12.16,56.13l-14.3,4.29Z" style="fill: url(#uuid-f4280209-caec-46fc-92f1-e575900c3a54); stroke-width: 0px;"/>
      </g>
      <path d="M977.57,848.11c-11.18,2.1-51.73,8.74-84.58,19.22v-32.85l-30.76,18.17c-20.62,11.88-34.25,14.68-39.85,14.68-43.34,0-98.91-37.05-98.91-108.7s63.61-126.18,135.96-126.18c7.34,0,20.97,1.4,33.55,5.59v-72c0-33.2-3.5-34.6-40.19-37.05v-13.28c29.01-3.5,64.66-11.18,85.28-17.83v303.03c0,27.96,3.84,30.41,24.82,32.51l14.68,1.4v13.28ZM892.98,678.59c-12.58-17.83-32.85-26.56-52.78-26.56-22.02,0-65.36,18.52-65.36,92.62,0,61.17,38.8,89.13,70.95,89.13,17.13,0,34.6-7.69,47.18-16.08v-139.11Z" style="fill: url(#uuid-f4280209-caec-46fc-92f1-e575900c3a54); stroke-width: 0px;"/>
    </g>
    <g>
      <g>
        <path d="M1186.71,814.29c-34.32,43.26-72.58,52.56-89.74,52.56-65.43,0-104.04-52.56-104.04-110.84,0-34.68,12.51-66.15,33.97-89.39,22.88-25.03,51.84-40.04,80.09-40.04h.36c45.41,0,81.52,38.97,81.52,80.45,0,10.01-2.86,14.66-12.51,16.8-9.65,1.43-76.16,6.79-137.65,8.94,1.07,67.58,40.76,96.18,77.59,96.18,21.81,0,42.19-8.22,61.5-26.1l8.94,11.44ZM1094.46,646.24c-22.88,0-45.77,20.38-53.27,64,28.25,0,56.49,0,86.17-1.07,9.3-.36,12.51-3.22,12.51-10.01,0-27.53-17.16-52.92-45.05-52.92h-.36Z" style="fill: none; stroke: #ffac5c; stroke-miterlimit: 10;"/>
        <path d="M1302.91,683.07c17.52-28.6,39.33-56.49,64-56.49,19.31,0,32.18,13.94,32.18,26.82,0,12.16-7.15,22.88-18.59,28.25-6.44,2.5-11.08,1.43-14.3-1.43-8.22-7.51-14.3-10.73-23.24-10.73-13.59,0-29.68,15.37-41.12,43.26v93.32c0,34.32,2.5,37.54,43.98,40.76v13.94h-126.93v-13.94c32.18-3.22,36.83-6.44,36.83-40.76v-108.34c0-33.25-2.86-35.4-32.54-39.69v-11.8c26.46-4.29,51.49-10.37,78.66-21.45v58.28h1.07Z" style="fill: none; stroke: #ffac5c; stroke-miterlimit: 10;"/>
        <path d="M1558.2,696.3c-10.37-30.75-28.96-52.56-55.06-52.56-19.31,0-32.89,14.3-32.89,34.68,0,21.45,20.02,33.97,43.98,43.26,40.4,16.09,67.93,35.04,67.93,71.87,0,48.98-45.05,73.3-89.03,73.3-27.53,0-52.56-9.65-61.5-17.16-3.58-6.79-8.58-43.62-9.3-64.36l14.66-2.15c10.01,35.04,33.97,66.15,65.43,66.15,19.31,0,36.47-14.66,36.47-35.4s-13.94-33.25-41.12-45.41c-30.75-13.94-67.58-31.82-67.58-73.3,0-37.18,32.18-68.65,82.24-68.65,22.88,0,37.18,4.65,47.91,9.3,4.65,11.44,11.08,43.62,12.16,56.13l-14.3,4.29Z" style="fill: none; stroke: #ffac5c; stroke-miterlimit: 10;"/>
      </g>
      <path d="M977.57,848.11c-11.18,2.1-51.73,8.74-84.58,19.22v-32.85l-30.76,18.17c-20.62,11.88-34.25,14.68-39.85,14.68-43.34,0-98.91-37.05-98.91-108.7s63.61-126.18,135.96-126.18c7.34,0,20.97,1.4,33.55,5.59v-72c0-33.2-3.5-34.6-40.19-37.05v-13.28c29.01-3.5,64.66-11.18,85.28-17.83v303.03c0,27.96,3.84,30.41,24.82,32.51l14.68,1.4v13.28ZM892.98,678.59c-12.58-17.83-32.85-26.56-52.78-26.56-22.02,0-65.36,18.52-65.36,92.62,0,61.17,38.8,89.13,70.95,89.13,17.13,0,34.6-7.69,47.18-16.08v-139.11Z" style="fill: none; stroke: #ffac5c; stroke-miterlimit: 10;"/>
    </g>
  </g>
</svg>